<svg width="305" height="268" viewBox="0 0 305 268" fill="none" xmlns="http://www.w3.org/2000/svg">
<g clip-path="url(#clip0)">
<path d="M170.062 267.387C231.126 267.387 280.629 258.642 280.629 247.854C280.629 237.067 231.126 228.321 170.062 228.321C108.997 228.321 59.4947 237.067 59.4947 247.854C59.4947 258.642 108.997 267.387 170.062 267.387Z" fill="#3F3D56"/>
<path d="M96.4793 121.383C103.507 110.937 106.559 98.3174 105.08 85.8139C103.602 73.3103 97.692 61.7505 88.4217 53.2307C79.1515 44.7109 67.135 39.7954 54.5514 39.3754C41.9677 38.9554 29.6502 43.0589 19.8326 50.9416C10.0149 58.8243 3.34716 69.9644 1.03851 82.3415C-1.27013 94.7187 0.933182 107.513 7.2489 118.405C13.5646 129.297 23.5745 137.566 35.4634 141.71C47.3523 145.855 60.3328 145.602 72.0512 140.997C72.8109 143.709 74.2311 146.19 76.1848 148.218C78.1385 150.246 80.5646 151.758 83.2459 152.619C85.9272 153.479 88.7801 153.661 91.5492 153.149C94.3182 152.636 96.917 151.445 99.1128 149.682C101.309 147.919 103.033 145.639 104.132 143.046C105.23 140.453 105.669 137.629 105.408 134.825C105.147 132.021 104.195 129.325 102.636 126.979C101.078 124.634 98.9628 122.711 96.4793 121.383V121.383Z" fill="#6C63FF"/>
<path d="M84.0551 81.4662H21.4258V86.4106H84.0551V81.4662Z" fill="white"/>
<path d="M84.0551 89.7069H21.4258V94.6513H84.0551V89.7069Z" fill="white"/>
<path d="M84.0551 97.9475H21.4258V102.892H84.0551V97.9475Z" fill="white"/>
<path d="M208.521 82.2195C201.493 71.7728 198.441 59.1535 199.92 46.6499C201.398 34.1464 207.308 22.5865 216.578 14.0668C225.848 5.54699 237.865 0.631416 250.449 0.211447C263.032 -0.208521 275.35 3.89493 285.167 11.7777C294.985 19.6604 301.653 30.8004 303.962 43.1776C306.27 55.5548 304.067 68.3495 297.751 79.2415C291.435 90.1335 281.425 98.4016 269.537 102.546C257.648 106.691 244.667 106.438 232.949 101.833C232.189 104.545 230.769 107.026 228.815 109.054C226.862 111.082 224.435 112.594 221.754 113.455C219.073 114.315 216.22 114.497 213.451 113.985C210.682 113.473 208.083 112.282 205.887 110.518C203.691 108.755 201.967 106.475 200.868 103.882C199.77 101.289 199.331 98.4646 199.592 95.6606C199.853 92.8567 200.805 90.1612 202.364 87.8155C203.922 85.4698 206.037 83.5471 208.521 82.2195V82.2195Z" fill="#6C63FF"/>
<path d="M220.945 47.2466L283.574 47.2466V42.3022L220.945 42.3022V47.2466Z" fill="white"/>
<path d="M220.945 55.4874L283.574 55.4874V50.543L220.945 50.543V55.4874Z" fill="white"/>
<path d="M220.945 63.728L283.574 63.728V58.7836L220.945 58.7836V63.728Z" fill="white"/>
<path d="M117.095 226.328C113.171 220.495 111.467 213.45 112.293 206.47C113.118 199.489 116.418 193.035 121.593 188.279C126.768 183.522 133.477 180.778 140.502 180.544C147.528 180.309 154.404 182.6 159.885 187.001C165.367 191.402 169.089 197.621 170.378 204.531C171.667 211.441 170.437 218.584 166.911 224.665C163.385 230.746 157.796 235.362 151.159 237.676C144.522 239.99 137.275 239.849 130.732 237.278C130.308 238.792 129.515 240.177 128.425 241.309C127.334 242.441 125.98 243.285 124.483 243.766C122.986 244.246 121.393 244.348 119.847 244.062C118.301 243.776 116.85 243.111 115.624 242.127C114.398 241.142 113.436 239.869 112.822 238.422C112.209 236.974 111.964 235.397 112.11 233.832C112.256 232.266 112.787 230.761 113.657 229.452C114.527 228.142 115.708 227.069 117.095 226.328V226.328Z" fill="#6C63FF"/>
<path d="M129.939 212.651C131.818 212.651 133.341 211.128 133.341 209.249C133.341 207.371 131.818 205.848 129.939 205.848C128.06 205.848 126.537 207.371 126.537 209.249C126.537 211.128 128.06 212.651 129.939 212.651Z" fill="white"/>
<path d="M141.544 212.651C143.423 212.651 144.946 211.128 144.946 209.249C144.946 207.371 143.423 205.848 141.544 205.848C139.666 205.848 138.143 207.371 138.143 209.249C138.143 211.128 139.666 212.651 141.544 212.651Z" fill="white"/>
<path d="M153.15 212.651C155.028 212.651 156.551 211.128 156.551 209.249C156.551 207.371 155.028 205.848 153.15 205.848C151.271 205.848 149.748 207.371 149.748 209.249C149.748 211.128 151.271 212.651 153.15 212.651Z" fill="white"/>
<path d="M144.951 103.724C144.951 103.724 160.128 104.137 162.634 105.049C165.141 105.961 166.262 112.482 166.262 112.482L154.478 116.186L145.664 115.687L139.031 116.155L142.735 106.455L144.951 103.724Z" fill="#2F2E41"/>
<path d="M145.605 98.7443C145.605 98.7443 146.604 102.601 144.388 105.332C142.172 108.062 153.915 117.793 153.915 117.793L160.11 116.728C160.11 116.728 158.745 104.878 160.579 101.877C162.413 98.8767 145.605 98.7443 145.605 98.7443Z" fill="#9F616A"/>
<path opacity="0.1" d="M145.605 98.7443C145.605 98.7443 146.604 102.601 144.388 105.332C142.172 108.062 153.915 117.793 153.915 117.793L160.11 116.728C160.11 116.728 158.745 104.878 160.579 101.877C162.413 98.8767 145.605 98.7443 145.605 98.7443Z" fill="black"/>
<path d="M186.806 211.504L173.137 229.631L182.466 235.078L195.304 214.072L186.806 211.504Z" fill="#9F616A"/>
<path d="M177.218 229.937C177.218 229.937 172.185 224.088 172.409 225.393C172.633 226.697 168.827 237.757 172.368 238.827C175.909 239.897 206.273 242.735 206.691 239.306C207.109 235.877 197.632 233.478 197.632 233.478C197.632 233.478 192.003 228.067 190.755 228.618C189.506 229.168 177.218 229.937 177.218 229.937Z" fill="#2F2E41"/>
<path d="M183.739 228.816L194.657 247.417L202.9 242.643L191.891 227.415L183.739 228.816Z" fill="#9F616A"/>
<path d="M200.974 184.564L197.734 189.149C197.734 189.149 182.287 210.603 183.928 212.335C185.568 214.067 192.4 220.614 195.875 219.345C199.349 218.076 211.694 196.149 211.694 196.149L208.474 183.275L200.974 184.564Z" fill="#2F2E41"/>
<path d="M134.433 180.223C134.433 180.223 137.892 186.678 146.66 188.864C155.428 191.049 164.588 195.517 164.914 195.461C165.24 195.405 166.163 194.911 166.387 196.215C166.611 197.52 169.016 199.792 169.016 199.792C169.016 199.792 178.701 232.703 182.399 232.739C186.098 232.775 193.699 230.125 193.857 229.091C194.015 228.057 182.532 194.447 182.42 193.795L181.075 185.97C181.075 185.97 196.262 188.395 197.678 188.823C199.095 189.251 211.694 196.149 211.694 196.149C211.694 196.149 224.537 186.892 212.524 177.543C200.511 168.195 179.862 161.337 179.862 161.337L172.454 159.254L165.998 158.868L165.048 155.223L149.758 156.105L133.801 162.876L134.433 180.223Z" fill="#2F2E41"/>
<path d="M154.613 106.421C161.191 106.421 166.523 101.088 166.523 94.5106C166.523 87.9327 161.191 82.6003 154.613 82.6003C148.035 82.6003 142.702 87.9327 142.702 94.5106C142.702 101.088 148.035 106.421 154.613 106.421Z" fill="#9F616A"/>
<path d="M143.838 104.083L145.27 103.837C145.27 103.837 147.857 113.799 155.861 115.444C155.861 115.444 159.81 110.713 159.642 109.915C159.473 109.117 162.769 104.858 164.522 107.242C166.274 109.626 164.094 151.627 165.566 152.381C167.039 153.135 170.197 153.935 167.655 156.721C165.113 159.508 155.015 163.258 152.779 161.964C150.542 160.67 145.972 149.706 143.996 146.018C142.019 142.329 138.855 129.781 138.855 129.781C138.855 129.781 134.815 116.041 137.301 112.928C139.787 109.815 143.838 104.083 143.838 104.083Z" fill="#D0CDE1"/>
<path d="M155.236 155.79C154.97 158.716 154.514 161.621 153.872 164.488C153.288 166.821 152.608 168.229 151.832 168.169C149.851 168.021 148.951 170.925 148.487 174.274C147.991 177.827 147.991 181.88 147.719 183.312C147.359 185.204 145.054 186.649 140.449 186.224C137.707 185.912 135.015 185.252 132.44 184.26C126.223 182 126.407 163.668 127.447 150.065C128.083 141.728 129.039 135.162 129.039 135.162C129.039 135.162 127.151 129.529 126.547 125.668C126.426 124.964 126.366 124.251 126.367 123.536C126.459 120.163 132.616 111.049 136.336 105.372C140.061 99.6952 145.142 103.86 145.142 103.86L143.374 109.197C143.374 109.197 146.114 113.426 146.134 117.451C146.154 121.475 152.696 124.38 155.044 126.328C156.521 127.553 156.485 143.896 155.236 155.79Z" fill="#2F2E41"/>
<path d="M160.408 105.767C160.408 105.767 160.837 106.275 162.802 106.027C165.159 105.73 168.4 106.546 169.153 108.796C170.534 112.923 174.426 129.71 174.426 129.71C174.426 129.71 176.046 148.901 176.775 153.14C177.503 157.379 177.142 161.134 177.86 163.36C178.578 165.586 170.768 159.208 167.89 160.038C165.011 160.869 163.162 150.109 163.523 146.354C163.885 142.599 164.191 138.518 163.192 134.662C162.194 130.805 163.964 120.598 163.898 118.259C163.832 115.921 157.551 110.027 160.408 105.767Z" fill="#2F2E41"/>
<path d="M168.835 165.415C168.835 165.415 181.446 172.294 182.653 182.087C183.86 191.879 165.786 172.605 165.786 172.605L168.835 165.415Z" fill="#9F616A"/>
<path d="M176.034 158.471C176.034 158.471 179.898 177.948 185.918 176.913C191.937 175.879 182.555 157.35 182.555 157.35L176.034 158.471Z" fill="#9F616A"/>
<path d="M196.649 243.382C196.649 243.382 193.567 246.933 192.803 246.393C192.039 245.853 190.281 253.204 191.865 254.611C193.45 256.017 199.553 258.325 199.619 260.663C199.686 263.001 216.055 262.538 216.641 260.087C217.227 257.637 214.588 252.048 212.733 251.024C210.879 250 204.022 240.575 204.022 240.575C204.022 240.575 198.651 241.359 196.649 243.382Z" fill="#2F2E41"/>
<path opacity="0.1" d="M166.827 177.327C163.902 175.262 155.736 174.75 148.487 174.274C145.306 174.07 142.302 173.87 139.993 173.546C137.769 173.238 135.768 171.205 133.992 168.177C131.299 163.588 129.123 156.707 127.447 150.065C128.083 141.728 129.039 135.162 129.039 135.162C129.039 135.162 127.151 129.529 126.547 125.668C126.972 125.076 127.521 124.582 128.155 124.22C135.844 120.919 143.186 153.402 144.118 158.499C144.134 158.583 144.146 158.663 144.158 158.731C144.61 161.355 149.495 163.6 153.872 164.488C156.568 165.036 159.077 165.072 160.233 164.36C163.27 162.496 172.608 169.957 173.316 170.169C174.024 170.385 171.027 180.299 166.827 177.327Z" fill="black"/>
<path d="M128.156 122.221C128.156 122.221 122.567 124.86 125.023 137.194C127.479 149.528 132.426 170.498 139.991 171.547C147.557 172.597 162.622 172.357 166.825 175.327C171.028 178.298 174.024 168.383 173.315 168.169C172.607 167.955 163.269 160.497 160.232 162.361C157.196 164.226 144.887 160.971 144.159 156.732C143.43 152.493 135.971 118.863 128.156 122.221Z" fill="#2F2E41"/>
<path d="M168.43 116.306L174.572 130.558C174.572 130.558 175.19 130.25 175.909 132.476C176.627 134.702 176.963 136.659 178.222 138.121C179.48 139.583 185.079 160.441 185.247 161.419C185.415 162.397 177.514 165.769 175.748 163.051C173.983 160.334 168.43 116.306 168.43 116.306Z" fill="#2F2E41"/>
<path d="M147.837 94.3448C148.293 94.2229 148.36 93.6169 148.375 93.1447C148.457 90.616 149.98 88.0213 152.4 87.2852C153.329 87.0305 154.302 86.977 155.253 87.1282C156.611 87.3091 157.921 87.7464 159.116 88.417C159.746 88.7714 160.365 89.1983 161.08 89.3065C161.552 89.378 163.597 89.9726 164.067 90.0562C165.101 90.2402 166.062 91.1652 167.054 90.821C168.003 90.4917 168.213 89.2627 168.236 88.2583C168.288 85.9701 166.551 82.8031 165.021 81.1008C163.86 79.809 162.112 79.2127 160.403 78.9026C158.406 78.5818 156.383 78.4587 154.363 78.5351C151.628 78.5839 148.817 78.795 146.351 79.9784C143.885 81.1618 141.813 83.5171 141.695 86.25C141.67 86.8193 141.729 87.391 141.681 87.9588C141.564 89.3439 140.829 90.5951 140.484 91.9416C140.237 92.9297 140.2 93.9584 140.375 94.9616C140.551 95.9647 140.934 96.92 141.501 97.7658C142.417 99.1128 143.855 100.331 143.802 101.959L145.787 99.9026C146.083 99.6762 146.293 99.3551 146.381 98.9927C146.47 98.6303 146.431 98.2487 146.272 97.9114L145.569 95.1714C145.389 94.6822 145.367 94.1485 145.508 93.6465C146.261 91.7856 147.075 94.548 147.837 94.3448Z" fill="#2F2E41"/>
<path d="M238.031 231.376C237.949 231.241 236.01 228.003 235.337 221.279C234.721 215.11 235.117 204.711 240.51 190.206C250.727 162.727 238.156 140.555 238.027 140.334L238.647 139.975C238.68 140.031 241.924 145.683 243.84 154.685C246.372 166.619 245.45 179.027 241.182 190.456C230.983 217.888 238.565 230.874 238.643 231.002L238.031 231.376Z" fill="#3F3D56"/>
<path d="M234.036 138.721C236.61 138.721 238.696 136.635 238.696 134.062C238.696 131.488 236.61 129.402 234.036 129.402C231.463 129.402 229.377 131.488 229.377 134.062C229.377 136.635 231.463 138.721 234.036 138.721Z" fill="#6C63FF"/>
<path d="M248.731 155.924C251.304 155.924 253.39 153.838 253.39 151.265C253.39 148.692 251.304 146.606 248.731 146.606C246.158 146.606 244.072 148.692 244.072 151.265C244.072 153.838 246.158 155.924 248.731 155.924Z" fill="#3F3D56"/>
<path d="M238.696 167.393C241.269 167.393 243.355 165.307 243.355 162.734C243.355 160.161 241.269 158.075 238.696 158.075C236.122 158.075 234.036 160.161 234.036 162.734C234.036 165.307 236.122 167.393 238.696 167.393Z" fill="#6C63FF"/>
<path d="M250.881 177.07C253.455 177.07 255.541 174.984 255.541 172.411C255.541 169.837 253.455 167.751 250.881 167.751C248.308 167.751 246.222 169.837 246.222 172.411C246.222 174.984 248.308 177.07 250.881 177.07Z" fill="#6C63FF"/>
<path d="M235.112 192.123C237.685 192.123 239.771 190.037 239.771 187.464C239.771 184.89 237.685 182.804 235.112 182.804C232.538 182.804 230.452 184.89 230.452 187.464C230.452 190.037 232.538 192.123 235.112 192.123Z" fill="#3F3D56"/>
<path d="M240.846 231.547C240.846 231.547 236.187 220.078 250.165 211.477L240.846 231.547Z" fill="#3F3D56"/>
<path d="M235.116 231.339C235.116 231.339 232.995 219.143 216.583 219.247L235.116 231.339Z" fill="#3F3D56"/>
</g>
<defs>
<clipPath id="clip0">
<rect width="305" height="267.387" fill="white"/>
</clipPath>
</defs>
</svg>
