<svg width="305" height="296" viewBox="0 0 305 296" fill="none" xmlns="http://www.w3.org/2000/svg">
<g clip-path="url(#clip0)">
<g opacity="0.5">
<path opacity="0.5" d="M186.589 0.004086L25.8907 73.3065L127.172 295.343L287.871 222.04L186.589 0.004086Z" fill="url(#paint0_linear)"/>
</g>
<path d="M185.289 2.57253L28.6792 74.0099L127.722 291.139L284.332 219.701L185.289 2.57253Z" fill="white"/>
<path d="M143.421 14.7411L65.7292 50.1802L74.3136 68.9996L152.006 33.5605L143.421 14.7411Z" fill="url(#paint1_linear)"/>
<path d="M96.1836 14.068C90.1869 16.8044 87.5953 24.0003 90.3972 30.1416C93.199 36.283 100.333 39.0435 106.33 36.3071C112.326 33.5707 114.918 26.3748 112.116 20.2335C109.314 14.0921 102.18 11.3316 96.1836 14.068ZM104.182 31.6029C102.921 32.215 101.505 32.4372 100.116 32.2411C98.7278 32.0449 97.4291 31.4393 96.3862 30.5016C95.3434 29.5638 94.6037 28.3366 94.2616 26.9765C93.9196 25.6164 93.9906 24.1852 94.4658 22.8657C94.9409 21.5462 95.7986 20.3983 96.9292 19.5685C98.0598 18.7387 99.4121 18.2647 100.813 18.2071C102.215 18.1495 103.601 18.5108 104.796 19.245C105.991 19.9791 106.94 21.0528 107.522 22.3288C107.912 23.1573 108.135 24.0544 108.178 24.969C108.221 25.8836 108.084 26.7977 107.774 27.6593C107.464 28.5208 106.987 29.3128 106.371 29.99C105.755 30.6672 105.011 31.2165 104.182 31.6063V31.6029Z" fill="url(#paint2_linear)"/>
<path d="M142.607 15.1285L66.5513 49.8209L74.7582 67.8126L150.813 33.1201L142.607 15.1285Z" fill="#6C63FF"/>
<path d="M96.5558 14.8882C94.4526 15.8472 92.6811 17.4083 91.4652 19.3741C90.2493 21.3399 89.6437 23.6222 89.725 25.9322C89.8062 28.2422 90.5706 30.4763 91.9216 32.3518C93.2726 34.2274 95.1494 35.6602 97.3147 36.4691C99.48 37.2779 101.837 37.4265 104.086 36.896C106.336 36.3655 108.378 35.1798 109.954 33.4888C111.53 31.7978 112.569 29.6774 112.939 27.3959C113.31 25.1143 112.996 22.7741 112.037 20.6711C110.75 17.8516 108.397 15.6583 105.494 14.5739C102.591 13.4894 99.3756 13.6024 96.5558 14.8882V14.8882ZM104.203 31.6546C102.99 32.2076 101.64 32.3885 100.325 32.1745C99.0088 31.9604 97.786 31.3611 96.8108 30.4521C95.8355 29.5432 95.1517 28.3655 94.8458 27.068C94.5398 25.7705 94.6254 24.4114 95.0918 23.1625C95.5582 21.9137 96.3845 20.8311 97.466 20.0518C98.5476 19.2724 99.836 18.8313 101.168 18.7841C102.501 18.7369 103.817 19.0858 104.951 19.7867C106.085 20.4876 106.986 21.5089 107.539 22.7217C108.281 24.3482 108.346 26.2027 107.72 27.8772C107.095 29.5518 105.83 30.9093 104.203 31.6511V31.6546Z" fill="#6C63FF"/>
<path d="M85.6132 90.5235L52.0819 105.819L67.3771 139.35L100.908 124.055L85.6132 90.5235Z" fill="url(#paint3_linear)"/>
<path d="M116.038 156.92L82.5062 172.215L97.8014 205.747L131.333 190.451L116.038 156.92Z" fill="url(#paint4_linear)"/>
<path d="M84.9433 92.31L53.8671 106.485L68.0425 137.562L99.1187 123.386L84.9433 92.31Z" fill="#69F0AE"/>
<path d="M114.974 158.142L83.8973 172.317L98.0727 203.393L129.149 189.218L114.974 158.142Z" fill="#6C63FF"/>
<path d="M152.361 73.148L109.764 92.5781L111.12 95.5506L153.716 76.1205L152.361 73.148Z" fill="#E0E0E0"/>
<path d="M182.134 64.954L111.801 97.0363L113.157 100.009L183.49 67.9265L182.134 64.954Z" fill="#E0E0E0"/>
<path d="M179.21 71.6717L113.831 101.494L115.187 104.467L180.566 74.6442L179.21 71.6717Z" fill="#E0E0E0"/>
<path d="M182.392 138.983L139.796 158.413L141.152 161.385L183.748 141.955L182.392 138.983Z" fill="#E0E0E0"/>
<path d="M212.164 130.786L141.831 162.868L143.187 165.84L213.52 133.758L212.164 130.786Z" fill="#E0E0E0"/>
<path d="M209.241 137.506L143.863 167.329L145.218 170.301L210.597 140.479L209.241 137.506Z" fill="#E0E0E0"/>
<path d="M68.5957 116.3L76.5981 118.898L79.2311 103.497L83.1254 104.561L78.7452 123.602L66.6761 118.312L68.5957 116.3Z" fill="url(#paint5_linear)"/>
<path d="M69.6158 116.096L76.574 118.354L78.8623 104.961L82.2466 105.888L78.4384 122.445L67.9443 117.847L69.6158 116.096Z" fill="white"/>
<path d="M99.8332 182.338L106.791 184.596L109.08 171.203L112.464 172.13L108.656 188.686L98.1618 184.089L99.8332 182.338Z" fill="white"/>
<path d="M233.422 183.892L134.058 229.217L149.165 262.337L248.53 217.012L233.422 183.892Z" fill="#E0E0E0"/>
<path d="M219.018 210.288C215.199 209.199 211.291 209.406 210.074 213.772C209.664 215.244 209.616 217.529 208.038 218.287C205.715 219.404 202.913 217.17 200.897 216.261C197.14 214.565 193.284 215.719 191.109 219.283C190.006 221.089 189.534 223.167 189.159 225.224C188.997 226.117 188.976 227.22 188.6 228.061C187.88 229.67 185.626 229.525 184.148 229.463C183.824 229.463 183.493 229.426 183.162 229.391C184.331 227.781 184.914 225.819 184.816 223.832C184.72 220.568 182.6 216.998 178.895 217.398C175.577 217.742 173.24 220.948 173.612 224.191C173.929 226.948 175.725 229.084 178.027 230.394C176.897 230.894 175.69 231.283 174.622 231.8C174.123 232.042 173.639 232.312 173.171 232.61C169.942 231.052 165.699 230.759 162.794 232.348C161.388 233.117 162.415 235.401 163.828 234.626C166.041 233.416 168.481 233.72 170.793 234.488L170.986 234.557C170.758 234.85 170.556 235.162 170.383 235.491C169.077 238.028 170.383 242.039 173.561 242.315C178.041 242.697 178.251 236.777 175.818 234.419C175.714 234.319 175.611 234.223 175.501 234.13C176.507 233.644 177.596 233.279 178.558 232.868C179.395 232.514 180.193 232.07 180.936 231.545L181.108 231.59C184.53 232.365 189.872 232.606 191.102 228.461C192.157 224.863 192.257 217.222 197.943 217.929C200.263 218.215 202.165 219.996 204.371 220.641C206.345 221.23 208.63 221.254 210.25 219.8C211.587 218.601 211.887 216.829 212.297 215.175C212.507 214.32 212.714 213.3 213.41 212.69C214.668 211.591 216.746 212.239 218.149 212.638C219.683 213.073 220.572 210.729 219.018 210.288ZM174.56 239.441C173.805 240.188 173.006 239.596 172.602 238.813C172.113 237.862 172.323 236.925 172.947 236.087C173.049 235.951 173.158 235.819 173.274 235.694C174.767 236.659 175.987 238.041 174.574 239.441H174.56ZM177.207 220.83C178.758 219.39 180.918 219.707 181.842 221.685C182.766 223.663 182.359 226.455 181.063 228.199C180.891 228.427 180.701 228.642 180.495 228.84C179.591 228.538 178.756 228.061 178.037 227.437C176.204 225.783 175.166 222.726 177.221 220.82L177.207 220.83Z" fill="#6C63FF"/>
<path d="M239.685 76.4085L211.866 87.2541C206.635 86.8647 195.627 85.4448 184.702 80.2925C172.54 74.5578 158.607 74.5716 146.793 80.5786C119.567 81.2299 104.582 77.7422 96.5868 74.4406L98.6959 70.1121L70.4981 59.1183L-4.76837e-06 27.5223V157.022L24.6723 168.015L37.9062 136.268L66.969 149.708L72.5486 135.53L91.631 149.691L92.9302 150.784L91.1416 152.641C89.5016 154.373 88.5876 156.668 88.5876 159.053C88.5876 161.438 89.5016 163.733 91.1416 165.465C91.9352 166.304 92.8916 166.972 93.9523 167.429C95.013 167.886 96.1557 168.121 97.3105 168.121C98.4653 168.121 99.608 167.886 100.669 167.429C101.729 166.972 102.686 166.304 103.479 165.465L102.501 166.499C100.861 168.231 99.9467 170.526 99.9467 172.911C99.9467 175.296 100.861 177.591 102.501 179.323V179.323C103.294 180.162 104.251 180.83 105.311 181.287C106.372 181.743 107.515 181.979 108.67 181.979C109.824 181.979 110.967 181.743 112.028 181.287C113.089 180.83 114.045 180.162 114.839 179.323L120.491 173.447L116.61 177.479C114.97 179.211 114.056 181.506 114.056 183.891C114.056 186.276 114.97 188.571 116.61 190.303V190.303C117.404 191.142 118.36 191.81 119.421 192.267C120.481 192.723 121.624 192.959 122.779 192.959C123.934 192.959 125.076 192.723 126.137 192.267C127.198 191.81 128.154 191.142 128.948 190.303L134.527 184.503L132.18 186.943C131.034 188.152 130.395 189.756 130.395 191.423C130.395 193.09 131.034 194.693 132.18 195.903C132.735 196.489 133.403 196.955 134.143 197.274C134.884 197.593 135.682 197.757 136.488 197.757C137.295 197.757 138.093 197.593 138.833 197.274C139.574 196.955 140.242 196.489 140.796 195.903L144.518 192.036C150.911 196.706 156.084 200.114 158.617 200.997C169.173 204.657 169.173 197.326 169.173 197.326C183.272 204.653 190.323 189.999 190.323 189.999C207.948 197.326 207.948 179.006 207.948 179.006C212.352 182.059 215.53 180.66 217.749 177.972C220.772 174.326 221.141 169.18 219.066 165.051L235.911 149.484L243.197 164.379L272.26 150.939L285.494 180.277L304.983 171.575V43.4306L239.685 76.4085Z" fill="url(#paint6_linear)"/>
<path d="M235.005 144.222L204.326 171.489L180.467 127.176L235.005 113.543V144.222Z" fill="#BE7C5E"/>
<path d="M88.4328 72.6382C88.4328 72.6382 98.2789 86.2718 156.605 82.8634L190.692 133.993L213.534 159.692C217.122 163.732 217.325 169.856 213.803 173.95C211.663 176.435 208.586 177.741 204.326 174.898C204.326 174.898 204.326 191.94 187.284 185.123C187.284 185.123 180.467 198.757 166.833 191.94C166.833 191.94 166.833 198.757 156.608 195.348C146.383 191.94 91.8412 147.63 91.8412 147.63L67.9823 130.588L88.4328 72.6382Z" fill="#FDA57D"/>
<path d="M211.143 89.6839C211.143 89.6839 196.413 89.6839 181.849 83.0704C168.605 77.0634 153.182 77.8285 140.962 85.7137C131.002 92.1411 122.372 102.783 122.534 120.36C122.534 120.36 135.789 133.993 149.802 106.726H160.027C160.027 106.726 169.873 140.814 197.523 137.398C225.173 133.983 231.61 130.581 231.61 130.581L211.143 89.6839Z" fill="#BE7C5E"/>
<path d="M121.655 156.989L120.549 155.883C117.56 152.894 112.713 152.894 109.724 155.883L101.801 163.805C98.8123 166.794 98.8123 171.641 101.801 174.63L102.908 175.736C105.897 178.726 110.743 178.726 113.733 175.736L121.655 167.814C124.644 164.825 124.644 159.978 121.655 156.989Z" fill="#BE7C5E"/>
<path d="M110.669 144.113L109.563 143.006C106.573 140.017 101.727 140.017 98.7377 143.006L90.8153 150.929C87.8261 153.918 87.8261 158.764 90.8153 161.754L91.9216 162.86C94.9108 165.849 99.7573 165.849 102.746 162.86L110.669 154.938C113.658 151.948 113.658 147.102 110.669 144.113Z" fill="#BE7C5E"/>
<path d="M136.992 165.508L135.885 164.402C132.896 161.412 128.05 161.412 125.061 164.402L115.435 174.027C112.446 177.017 112.446 181.863 115.435 184.852L116.541 185.959C119.53 188.948 124.377 188.948 127.366 185.959L136.992 176.333C139.981 173.344 139.981 168.497 136.992 165.508Z" fill="#BE7C5E"/>
<path d="M145.064 177.367L144.291 176.595C142.204 174.508 138.819 174.508 136.732 176.595L130.657 182.67C128.569 184.758 128.569 188.142 130.657 190.23L131.429 191.002C133.517 193.09 136.901 193.09 138.989 191.002L145.064 184.927C147.151 182.839 147.151 179.455 145.064 177.367Z" fill="#BE7C5E"/>
<path d="M269.089 151.039L238.413 164.672L207.734 89.6838L235.005 79.4585L269.089 151.039Z" fill="white"/>
<path d="M37.3065 133.997L67.9823 147.63L98.6615 72.6417L71.3907 62.413L37.3065 133.997Z" fill="white"/>
<path d="M3.21887 31.7373L71.3907 62.4131L27.0812 164.673L3.21887 154.447V31.7373Z" fill="#333333"/>
<path d="M303.177 48.7793L235.005 79.4585L279.318 181.715L303.177 171.489V48.7793Z" fill="#4D8AF0"/>
</g>
<defs>
<linearGradient id="paint0_linear" x1="207.523" y1="258.691" x2="106.242" y2="36.6546" gradientUnits="userSpaceOnUse">
<stop stop-color="#808080" stop-opacity="0.25"/>
<stop offset="0.54" stop-color="#808080" stop-opacity="0.12"/>
<stop offset="1" stop-color="#808080" stop-opacity="0.1"/>
</linearGradient>
<linearGradient id="paint1_linear" x1="49024.2" y1="-18807" x2="48509" y2="-19936.6" gradientUnits="userSpaceOnUse">
<stop stop-color="#808080" stop-opacity="0.25"/>
<stop offset="0.54" stop-color="#808080" stop-opacity="0.12"/>
<stop offset="1" stop-color="#808080" stop-opacity="0.1"/>
</linearGradient>
<linearGradient id="paint2_linear" x1="14487.6" y1="-3736.52" x2="13770.6" y2="-5308.31" gradientUnits="userSpaceOnUse">
<stop stop-color="#808080" stop-opacity="0.25"/>
<stop offset="0.54" stop-color="#808080" stop-opacity="0.12"/>
<stop offset="1" stop-color="#808080" stop-opacity="0.1"/>
</linearGradient>
<linearGradient id="paint3_linear" x1="19856.6" y1="4464" x2="18221.1" y2="878.498" gradientUnits="userSpaceOnUse">
<stop stop-color="#808080" stop-opacity="0.25"/>
<stop offset="0.54" stop-color="#808080" stop-opacity="0.12"/>
<stop offset="1" stop-color="#808080" stop-opacity="0.1"/>
</linearGradient>
<linearGradient id="paint4_linear" x1="23165.3" y1="11612.2" x2="21529.6" y2="8026.38" gradientUnits="userSpaceOnUse">
<stop stop-color="#808080" stop-opacity="0.25"/>
<stop offset="0.54" stop-color="#808080" stop-opacity="0.12"/>
<stop offset="1" stop-color="#808080" stop-opacity="0.1"/>
</linearGradient>
<linearGradient id="paint5_linear" x1="9113.4" y1="2675.67" x2="8675.41" y2="1715.49" gradientUnits="userSpaceOnUse">
<stop stop-color="#808080" stop-opacity="0.25"/>
<stop offset="0.54" stop-color="#808080" stop-opacity="0.12"/>
<stop offset="1" stop-color="#808080" stop-opacity="0.1"/>
</linearGradient>
<linearGradient id="paint6_linear" x1="182874" y1="105965" x2="182874" y2="17613.4" gradientUnits="userSpaceOnUse">
<stop stop-color="#808080" stop-opacity="0.25"/>
<stop offset="0.54" stop-color="#808080" stop-opacity="0.12"/>
<stop offset="1" stop-color="#808080" stop-opacity="0.1"/>
</linearGradient>
<clipPath id="clip0">
<rect width="305" height="295.337" fill="white"/>
</clipPath>
</defs>
</svg>
