<svg width="305" height="227" viewBox="0 0 305 227" fill="none" xmlns="http://www.w3.org/2000/svg">
<g clip-path="url(#clip0)">
<path opacity="0.1" d="M177.207 31.7827C157.654 31.2782 139.032 26.5893 121.249 21.4593C103.466 16.3294 85.8528 10.6345 66.7681 7.91541C54.493 6.16614 40.4536 5.91841 30.5653 10.8097C21.0455 15.5106 17.97 23.6255 16.3174 31.1785C15.0727 36.8492 14.3416 42.816 17.7494 48.1243C20.118 51.8101 24.3175 54.9068 27.2239 58.4386C37.3357 70.7227 30.1876 85.8678 19.2328 97.8619C14.0968 103.487 8.13001 108.853 4.1632 114.844C0.196397 120.835 -1.63746 127.693 1.83388 133.805C5.27198 139.847 13.4684 144.406 22.3477 147.606C40.3811 154.104 61.623 155.962 82.3513 157.017C128.222 159.349 174.334 158.337 220.325 157.319C237.347 156.944 254.441 156.566 271.184 154.6C280.483 153.515 290.081 151.79 296.834 147.63C305.402 142.349 307.526 133.406 301.782 126.784C292.151 115.675 265.528 112.913 258.788 100.992C255.084 94.4298 258.888 87.1216 264.275 81.0339C275.828 67.9794 295.19 56.5262 296.208 41.6015C296.909 31.3537 287.601 21.0877 273.208 16.2388C258.123 11.1571 237.202 11.7946 226.078 20.2086C214.612 28.8824 194.473 32.2178 177.207 31.7827Z" fill="#536DFE"/>
<g opacity="0.8">
<path opacity="0.8" d="M283.619 54.0125C283.619 54.0125 280.211 52.6288 269.371 57.6017C258.531 62.5745 257.178 61.9431 254.371 61.1818C251.564 60.4204 249.999 60.2422 246.99 56.0911C246.99 56.0911 244.876 44.5895 242.815 42.7979C240.755 41.0064 232.036 43.8161 232.036 43.8161C232.036 43.8161 221.576 46.2209 219.57 32.2359C219.57 32.2359 220.984 21.698 219.057 18.4623C219.057 18.4623 222.948 20.1391 229.365 17.4321C235.782 14.7251 240.918 20.3506 240.918 20.3506C240.918 20.3506 242.537 24.5409 242.368 27.0364C242.199 29.5319 243.223 30.4745 246.296 29.2661C246.296 29.2661 247.806 27.1271 245.67 23.5923C243.534 20.0575 242.021 17.423 242.616 14.6768C243.211 11.9305 244.918 8.12688 250.407 6.21749C255.897 4.30811 263.356 3.95161 266.936 2.47728C270.516 1.00294 271.38 0.0150146 271.38 0.0150146C271.38 0.0150146 269.178 2.2235 274.368 11.5771C279.559 20.9306 276.25 24.9941 276.25 24.9941C276.25 24.9941 273.489 31.5742 261.302 31.0365C261.302 31.0365 249.558 31.4655 255.96 36.4444C255.96 36.4444 260.06 35.6105 266.193 33.6619C272.326 31.7132 276.746 39.7556 277.846 45.3508C278.945 50.946 283.619 54.0125 283.619 54.0125Z" fill="#536DFE"/>
<path opacity="0.8" d="M267.837 7.09662L267.9 7.07849C268.371 8.86401 263.123 16.0363 258.637 21.7403L258.586 21.701C264.912 13.6556 268.211 8.46823 267.837 7.09662Z" fill="#444053"/>
<path opacity="0.8" d="M258.676 21.5833L258.703 21.6558C255.12 26.2117 250.613 31.6498 247.005 35.677C246.661 36.0607 246.32 36.4625 245.993 36.8855L245.888 36.8039C246.22 36.39 246.561 35.9852 246.906 35.5955C250.513 31.5622 255.096 26.1362 258.676 21.5833Z" fill="#444053"/>
<path opacity="0.8" d="M245.975 36.683L246.048 36.8038C239.483 45.0003 239.048 57.7255 239.033 57.8373L237.649 56.2542C237.664 56.1273 239.365 44.9338 245.975 36.683Z" fill="#444053"/>
<path opacity="0.8" d="M276.009 49.5684C276.009 49.5684 268.269 45.5442 262.235 46.9884C256.202 48.4325 242.622 41.8826 242.622 41.8826C242.622 41.8826 236.854 39.5412 235.694 36.8704C235.694 36.8704 231.739 32.6861 231.513 30.526C231.286 28.3658 227.425 22.9156 224.924 22.7192" stroke="#444053" stroke-miterlimit="10"/>
<path opacity="0.8" d="M274.888 53.4416C274.888 53.4416 270.991 50.8162 271.444 47.7527" stroke="#444053" stroke-miterlimit="10"/>
<path opacity="0.8" d="M268.909 56.8343C268.909 56.8343 263.332 54.8101 262.773 46.8644" stroke="#444053" stroke-miterlimit="10"/>
<path opacity="0.8" d="M259.912 58.8888C259.912 58.8888 254.583 54.4688 256.353 46.7437" stroke="#444053" stroke-miterlimit="10"/>
<path opacity="0.8" d="M249.099 56.7285C249.099 56.7285 245.552 49.2873 248.709 44.4474" stroke="#444053" stroke-miterlimit="10"/>
<path opacity="0.8" d="M276.099 44.662C276.099 44.662 272.066 45.943 272.933 48.0638" stroke="#444053" stroke-miterlimit="10"/>
<path opacity="0.8" d="M271.232 37.3446C271.232 37.3446 265.836 39.0546 265.71 46.6891" stroke="#444053" stroke-miterlimit="10"/>
<path opacity="0.8" d="M263.71 35.5834C263.71 35.5834 258.8 41.6439 259.148 47.1515" stroke="#444053" stroke-miterlimit="10"/>
<path opacity="0.8" d="M255.111 37.9609C255.111 37.9609 250.232 42.6226 250.854 45.2118" stroke="#444053" stroke-miterlimit="10"/>
<path opacity="0.8" d="M252.169 36.3145C252.169 36.3145 247.595 37.1332 246.957 35.6317" stroke="#444053" stroke-miterlimit="10"/>
<path opacity="0.8" d="M246.226 30.7916C246.226 30.7916 248.537 33.8521 249.132 33.1663" stroke="#444053" stroke-miterlimit="10"/>
<path opacity="0.8" d="M269.133 28.8551C269.133 28.8551 257.604 29.692 254.996 26.2177" stroke="#444053" stroke-miterlimit="10"/>
<path opacity="0.8" d="M243.8 15.3717C243.8 15.3717 249.211 26.9821 253.138 28.4625" stroke="#444053" stroke-miterlimit="10"/>
<path opacity="0.8" d="M249.48 9.83984C249.48 9.83984 252.803 20.5197 256.918 23.8551" stroke="#444053" stroke-miterlimit="10"/>
<path opacity="0.8" d="M273.985 20.0425C273.985 20.0425 265.223 23.8039 259.954 19.9972" stroke="#444053" stroke-width="0.75" stroke-miterlimit="10"/>
<path opacity="0.8" d="M257.287 7.56189C257.287 7.56189 259.29 15.417 261.987 17.3112" stroke="#444053" stroke-width="0.75" stroke-miterlimit="10"/>
<path opacity="0.8" d="M272.661 11.2386C272.661 11.2386 267.734 13.1027 265.894 11.6737" stroke="#444053" stroke-width="0.75" stroke-miterlimit="10"/>
<path opacity="0.8" d="M242.005 33.3567C242.005 33.3567 242.005 40.1997 240.141 40.6861" stroke="#444053" stroke-miterlimit="10"/>
<path opacity="0.8" d="M226.773 42.224C226.773 42.224 234.175 42.8584 237.585 39.0397" stroke="#444053" stroke-miterlimit="10"/>
<path opacity="0.8" d="M240.096 25.272C240.096 25.272 238.308 32.2207 233.368 34.0817" stroke="#444053" stroke-miterlimit="10"/>
<path opacity="0.8" d="M222.335 34.9127C222.335 34.9127 227.573 36.7254 232.078 32.0969" stroke="#444053" stroke-miterlimit="10"/>
<path opacity="0.8" d="M234.274 19.3052C234.274 19.3052 233.779 25.1995 230.573 27.9578" stroke="#444053" stroke-miterlimit="10"/>
<path opacity="0.8" d="M222.534 25.9307C222.534 25.9307 226.881 25.9579 227.9 24.5439" stroke="#444053" stroke-miterlimit="10"/>
</g>
<path opacity="0.1" d="M79.4177 226.706C115.792 226.706 145.279 224.61 145.279 222.023C145.279 219.437 115.792 217.34 79.4177 217.34C43.0433 217.34 13.556 219.437 13.556 222.023C13.556 224.61 43.0433 226.706 79.4177 226.706Z" fill="#536DFE"/>
<path d="M117.572 196.528C118.479 194.899 119.563 193.364 120.439 191.715C121.24 190.204 121.865 188.603 122.587 187.05C123.823 184.391 125.346 181.878 126.732 179.292C127.639 177.597 128.515 175.751 128.34 173.835C128.173 172.023 127.11 170.452 126.699 168.699C125.025 161.506 120.998 154.902 118.542 147.944C117.914 146.18 117.303 144.403 116.518 142.699C115.007 139.421 112.892 136.476 110.778 133.554C110.015 132.438 109.167 131.383 108.24 130.4C107.481 129.642 106.629 128.974 105.941 128.152C104.521 126.46 103.856 124.025 102.08 122.714C102.049 122.793 102.016 122.868 101.983 122.947C100.711 119.699 96.4451 117.557 93.9707 114.865C92.5303 113.221 91.2049 111.48 90.0039 109.654L84.6171 101.868C83.6896 100.527 82.744 99.1489 82.3694 97.5507C81.9102 95.6232 82.3362 93.5688 81.883 91.6413C81.5932 90.481 81.0285 89.4075 80.2364 88.5114C80.2878 88.4963 80.3422 88.4751 80.3966 88.463C81.4238 88.1881 82.5114 88.1398 83.5295 87.895C85.7501 87.3663 87.6806 85.9464 89.8921 85.3784C91.022 85.0763 92.2275 85.0159 93.2517 84.472C93.7498 84.174 94.1426 83.728 94.3755 83.1963C94.6083 82.6646 94.6696 82.0734 94.5508 81.5052C93.8348 77.7137 95.8348 73.8707 95.4964 70.0248C95.4058 68.9613 95.1339 67.9251 94.9586 66.8707C94.5508 64.4235 94.6263 61.9159 94.7713 59.4325C95.4608 58.3134 96.288 57.2852 97.2336 56.3721C98.5931 55.0609 100.215 53.9551 101.161 52.3146C101.986 50.8614 102.185 49.1061 101.977 47.4445C101.829 46.236 101.418 44.9641 100.466 44.23C99.5146 43.4958 98.149 43.4414 96.9979 43.8251C96.8378 43.8765 96.6807 43.9399 96.5266 44.0064C96.0455 43.7656 95.5204 43.6253 94.9833 43.5942C94.4463 43.563 93.9085 43.6416 93.4027 43.8251C92.2547 44.2058 91.2698 44.9641 90.3453 45.7526C89.7974 46.1823 89.3167 46.6915 88.9193 47.2632C88.3362 48.1696 88.167 49.2874 87.9465 50.3539C87.4775 52.4126 86.794 54.4166 85.9072 56.3328C85.744 56.6712 85.303 57.2784 84.9465 57.8585L84.2999 57.7256C84.019 60.4174 81.7652 62.3933 80.3935 64.7196C79.7259 65.8495 79.2576 67.0852 78.6564 68.2544C77.9703 69.5271 77.2045 70.7552 76.3633 71.9311C75.5476 73.1396 74.7308 74.337 73.9131 75.5233C72.8883 77.0814 71.7789 78.5821 70.5898 80.0188C69.481 79.9282 68.3723 79.8466 67.2665 79.8285C65.4106 79.8019 63.5568 79.9669 61.7347 80.3209C61.6285 79.6802 61.563 79.0334 61.5384 78.3844C61.5384 78.3451 61.5384 78.3058 61.5384 78.2665C61.5384 78.1094 61.5565 77.9221 61.5776 77.7197C63.1479 76.6681 64.4258 75.2357 65.2922 73.5561C66.1585 71.8766 66.5849 70.0048 66.5315 68.1158C66.4781 66.2267 65.9466 64.3821 64.9868 62.7542C64.0269 61.1263 62.67 59.7683 61.0429 58.8071C61.1029 58.4675 61.1413 58.1244 61.1577 57.7799C61.1577 57.5775 61.1577 57.3721 61.1577 57.1757C61.1577 57.073 61.1577 56.9703 61.1366 56.8736C61.1178 56.6698 61.0835 56.4678 61.0338 56.2693C61.0097 56.1727 60.9825 56.076 60.9492 55.9672C60.8849 55.7777 60.8009 55.5954 60.6985 55.4234C60.6922 55.4129 60.6851 55.4028 60.6773 55.3932C60.6381 55.3298 60.5988 55.2663 60.5535 55.2059C60.5081 55.1455 60.5142 55.1576 60.4961 55.1334C60.4642 55.0892 60.43 55.0468 60.3933 55.0065L60.3178 54.9279C60.2846 54.8917 60.2514 54.8554 60.2151 54.8222L60.1305 54.7467L60.0248 54.653L59.9281 54.5805L59.8193 54.4989L59.7136 54.4295L59.6048 54.36C59.5686 54.3358 59.5293 54.3146 59.49 54.2935L59.3782 54.2301L59.2574 54.1696L59.1456 54.1152L59.0127 54.0578L58.9039 54.0095L58.7589 53.9551L58.6562 53.9158L58.4991 53.8615L58.4054 53.8313L58.2332 53.7769L58.1516 53.7527L57.9643 53.7013L57.8918 53.6802L57.6954 53.6319L57.638 53.6168L57.4205 53.5684H57.3843L57.064 53.4989C55.7407 53.227 54.4094 52.9924 53.07 52.795C51.9733 52.6319 50.8494 52.4929 49.7679 52.7376C48.2754 53.0699 47.0307 54.079 45.6349 54.7044C43.9853 55.4476 42.1545 55.644 40.3962 56.0518C38.6378 56.4597 36.8282 57.1576 35.7254 58.5987C34.8855 59.6984 34.5502 61.0972 34.2994 62.4597C32.2088 73.8315 34.4626 85.4962 34.8886 97.0552C35.0547 101.554 34.8523 106.363 32.3024 110.046L39.7285 109.85C40.085 109.85 40.4445 109.829 40.807 109.808C41.1696 109.786 41.5321 109.759 41.8886 109.717C42.8304 109.629 43.7454 109.355 44.5805 108.91C44.9672 108.69 45.3203 108.415 45.6288 108.095C46.6379 107.055 47.1757 105.602 47.6681 104.212C47.8343 103.744 48.0005 103.27 48.1485 102.792C48.2089 102.593 48.2663 102.394 48.3177 102.188L48.3419 102.092L48.4265 102.131C48.7286 102.699 49.07 103.255 49.4325 103.792C50.7286 105.702 52.3721 107.333 54.0036 108.956C57.2453 112.173 60.5595 115.448 64.623 117.515C65.9946 118.207 67.478 118.79 68.5233 119.932C69.0369 120.484 69.481 121.194 70.2091 121.385C70.6623 121.503 71.1608 121.385 71.5929 121.578C72.2273 121.844 72.4599 122.608 72.753 123.237C73.046 123.865 73.7077 124.506 74.3361 124.219C74.2183 124.802 74.2669 125.407 74.4763 125.964C74.6857 126.521 75.0475 127.008 75.5204 127.37C75.8247 127.539 76.087 127.774 76.2878 128.059C76.3845 128.318 76.4376 128.592 76.4449 128.868C76.574 129.64 76.9813 130.337 77.5899 130.829C77.0008 131.805 77.4721 133.204 77.4872 134.421C77.4872 135.442 77.1518 136.427 76.9222 137.421C76.2545 140.337 76.6201 143.388 77.1639 146.328C77.466 147.95 77.8497 149.63 78.9071 150.89C79.2515 151.297 79.6624 151.651 80.025 152.047C80.717 152.826 81.292 153.703 81.7319 154.648C82.6488 156.52 83.2734 158.521 83.5839 160.582C83.7299 161.616 84.025 162.623 84.46 163.573C85.1217 165.017 84.5175 166.793 85.1096 168.267C85.3785 168.929 85.874 169.494 86.0341 170.186C86.2607 171.192 85.732 172.198 85.59 173.222C85.2456 175.621 86.9767 177.848 87.1338 180.265C87.1595 180.406 87.1292 180.553 87.0492 180.672C86.9314 180.805 86.7289 180.802 86.5688 180.878C86.2667 181.023 86.1851 181.431 86.0885 181.769C85.9918 182.107 85.7199 182.491 85.3845 182.388C80.4207 185.044 75.2817 187.497 70.3179 190.153L68.052 191.361L55.9341 197.836C55.787 197.909 55.6633 198.022 55.5773 198.162C55.4913 198.302 55.4464 198.463 55.4477 198.627C55.4477 198.772 55.4658 198.929 55.4779 199.065C54.6289 199.277 53.8132 199.531 53.2331 199.636C52.9945 199.682 52.7558 199.727 52.5202 199.778C52.5775 199.686 52.6146 199.583 52.6289 199.476C52.6299 199.327 52.5759 199.183 52.4772 199.072C52.3785 198.96 52.2421 198.889 52.0942 198.872C51.7982 198.843 51.4994 198.882 51.221 198.987C50.5284 199.176 49.8209 199.306 49.1062 199.376C48.2573 199.458 47.3932 199.455 46.5715 199.679C45.7497 199.902 44.94 200.401 44.6077 201.189C44.4414 201.645 44.3675 202.13 44.3902 202.615C44.3718 204.483 44.5931 206.345 45.0488 208.156C45.056 208.228 45.0796 208.297 45.1179 208.358C45.1561 208.42 45.2079 208.471 45.2693 208.51C45.3751 208.552 45.502 208.51 45.6077 208.558C45.7008 208.614 45.7705 208.702 45.8041 208.806C46.3116 209.96 46.4295 211.247 46.5654 212.504C46.7668 214.367 47.0216 216.225 47.3298 218.078C47.511 219.159 47.7346 220.289 48.4385 221.123C49.212 222.029 50.4355 222.431 51.6168 222.591C54.1093 222.927 56.6259 222.422 59.0852 221.905C59.5444 221.809 60.0368 221.691 60.345 221.334C60.5703 221.05 60.6784 220.69 60.6471 220.328C60.5897 219.087 59.4598 218.214 58.4326 217.516L57.0308 216.546C56.9112 216.482 56.8164 216.381 56.7616 216.257C56.7068 216.133 56.6952 215.994 56.7287 215.863L56.8193 214.029H56.5474C56.8495 212.736 57.3359 211.494 58.2876 210.606C58.9432 210.002 59.7982 209.579 60.484 209.029C61.3639 209.706 62.4297 210.097 63.5384 210.15C65.3511 207.709 67.904 206.047 70.4569 204.41C72.5304 203.1 74.6735 201.904 76.8769 200.827C78.6614 199.944 80.4741 199.118 82.315 198.346C84.9132 197.253 87.5598 196.277 90.2094 195.325C91.9767 194.691 93.7592 194.065 95.3876 193.129C99.6173 190.685 102.605 185.805 102.034 180.92C101.315 174.757 102.853 168.334 102.75 162.128C102.72 160.316 102.654 158.503 102.104 156.766C102.232 156.857 102.352 156.958 102.463 157.068C103.563 158.095 103.829 159.727 104.88 160.899C105.699 161.82 106.944 162.409 107.439 163.533C107.817 164.394 107.762 165.557 108.551 166.053C108.774 166.195 109.04 166.255 109.264 166.394C109.531 166.585 109.757 166.829 109.926 167.11C110.762 168.304 111.629 169.582 111.72 171.038C111.759 171.615 111.705 172.283 112.128 172.672C112.249 172.784 112.403 172.866 112.466 173.017C112.599 173.319 112.249 173.639 112.188 173.974C112.101 174.44 112.56 174.793 112.844 175.183C113.081 175.508 113.209 175.9 113.209 176.302C113.209 176.705 113.081 177.096 112.844 177.422C110.367 180.639 109.92 184.975 107.753 188.416C107.004 189.603 106.17 190.727 105.445 191.929C103.216 195.621 102.089 199.863 100.995 204.041C101.462 204.855 102.095 205.561 102.853 206.114C102.444 207.521 101.738 208.824 100.783 209.936C100.54 210.207 100.312 210.493 100.101 210.791C99.9235 210.566 99.6915 210.391 99.427 210.283C99.0297 212.017 98.827 213.791 98.8227 215.57C98.8227 216.742 98.9829 218.081 99.9345 218.757C100.314 218.997 100.732 219.169 101.17 219.268L103.243 219.872C103.607 220.012 104.003 220.051 104.388 219.984C104.632 219.914 104.85 219.763 105.101 219.715C105.373 219.687 105.648 219.723 105.904 219.821L107.696 220.343C108.302 220.505 108.894 220.714 109.466 220.969C109.977 221.214 110.448 221.531 110.95 221.803C111.784 222.224 112.649 222.58 113.539 222.866L116.627 223.93C117.487 224.271 118.386 224.504 119.303 224.624C119.938 224.679 120.581 224.624 121.207 224.733C121.684 224.815 122.146 224.987 122.627 225.035C123.424 225.059 124.207 224.826 124.862 224.371C125.118 224.226 125.339 224.027 125.509 223.788C125.962 223.081 125.572 222.147 125.131 221.434C124.312 220.111 123.288 218.872 121.938 218.111C121.391 217.809 120.799 217.585 120.234 217.307C118.627 216.522 117.415 215.21 115.895 214.313C115.702 214.175 115.466 214.109 115.229 214.125C114.991 214.14 114.767 214.238 114.593 214.401C113.33 213.582 111.965 212.781 111.27 211.449C110.96 210.806 110.756 210.118 110.666 209.41C111.376 209.579 112.092 209.712 112.814 209.83C113.989 205.274 115.273 200.636 117.572 196.528ZM88.5477 67.6773C88.4873 68.0187 88.4208 68.3571 88.3483 68.6955C87.7441 71.5323 86.88 74.7106 84.9042 76.8224C84.2543 77.4414 83.4993 77.9397 82.6745 78.2937L82.454 78.4025C83.877 74.6019 86.1428 71.0792 88.5477 67.6773Z" fill="url(#paint0_linear)"/>
<path d="M91.4722 50.8494C91.6958 49.795 91.865 48.6892 92.4481 47.7799C92.8467 47.2081 93.3283 46.699 93.8771 46.2693C94.8015 45.4868 95.7895 44.7345 96.9405 44.3538C98.0916 43.9732 99.4451 44.0245 100.412 44.7557C101.379 45.4868 101.787 46.7466 101.938 47.949C102.143 49.6016 101.938 51.3418 101.119 52.7829C100.182 54.4174 98.5569 55.502 97.1913 56.8132C96.202 57.7597 95.3416 58.8324 94.6324 60.0035C94.3096 60.614 93.9184 61.1856 93.4662 61.7075C93.2369 61.9671 92.9499 62.1693 92.6282 62.2979C92.3066 62.4264 91.9593 62.4777 91.6142 62.4477C91.0311 62.354 90.5568 61.9492 90.1036 61.5625C89.5447 61.073 88.0402 60.1999 87.9888 59.4235C87.9525 58.7951 89.1278 57.3691 89.4148 56.7799C90.3077 54.8811 90.9974 52.8932 91.4722 50.8494V50.8494Z" fill="#FBBEBE"/>
<path opacity="0.1" d="M91.4722 50.8494C91.6958 49.795 91.865 48.6892 92.4481 47.7799C92.8467 47.2081 93.3283 46.699 93.8771 46.2693C94.8015 45.4868 95.7895 44.7345 96.9405 44.3538C98.0916 43.9732 99.4451 44.0245 100.412 44.7557C101.379 45.4868 101.787 46.7466 101.938 47.949C102.143 49.6016 101.938 51.3418 101.119 52.7829C100.182 54.4174 98.5569 55.502 97.1913 56.8132C96.202 57.7597 95.3416 58.8324 94.6324 60.0035C94.3096 60.614 93.9184 61.1856 93.4662 61.7075C93.2369 61.9671 92.9499 62.1693 92.6282 62.2979C92.3066 62.4264 91.9593 62.4777 91.6142 62.4477C91.0311 62.354 90.5568 61.9492 90.1036 61.5625C89.5447 61.073 88.0402 60.1999 87.9888 59.4235C87.9525 58.7951 89.1278 57.3691 89.4148 56.7799C90.3077 54.8811 90.9974 52.8932 91.4722 50.8494V50.8494Z" fill="black"/>
<path d="M59.7498 81.046C62.1704 80.4023 64.6685 80.0973 67.1729 80.1396C71.3512 80.2001 75.6533 81.2122 79.6322 79.9312C80.6594 79.5749 81.6582 79.1416 82.6202 78.6351C83.4208 78.2363 84.2365 77.8254 84.8498 77.1728C86.8286 75.0761 87.6806 71.919 88.3 69.1003C88.9193 66.2815 89.0794 63.3872 89.2395 60.508C90.2698 60.9884 91.3544 61.4627 92.4964 61.366C93.6384 61.2694 94.7774 60.3993 94.7713 59.2512C94.6021 61.9189 94.4692 64.6198 94.9194 67.2543C95.0946 68.2996 95.3665 69.3299 95.4602 70.3873C95.7985 74.206 93.7955 78.0218 94.5115 81.7892C94.6297 82.3544 94.568 82.9423 94.335 83.4706C94.102 83.9989 93.7094 84.441 93.2124 84.7348C92.1852 85.2877 90.9767 85.3572 89.8468 85.6412C87.6323 86.2062 85.6987 87.614 83.4751 88.1397C82.4389 88.3844 81.3603 88.4418 80.3392 88.7047C78.8709 89.0914 77.5385 89.9313 76.043 90.1971C74.9222 90.3965 73.7681 90.2606 72.6352 90.3573C71.6503 90.4388 70.6835 90.6986 69.6956 90.7228C67.2786 90.7832 64.9916 89.4146 63.3843 87.5989C61.7771 85.7832 60.7589 83.2454 59.7498 81.046Z" fill="#536DFE"/>
<path opacity="0.1" d="M59.7498 81.046C62.1704 80.4023 64.6685 80.0973 67.1729 80.1396C71.3512 80.2001 75.6533 81.2122 79.6322 79.9312C80.6594 79.5749 81.6582 79.1416 82.6202 78.6351C83.4208 78.2363 84.2365 77.8254 84.8498 77.1728C86.8286 75.0761 87.6806 71.919 88.3 69.1003C88.9193 66.2815 89.0794 63.3872 89.2395 60.508C90.2698 60.9884 91.3544 61.4627 92.4964 61.366C93.6384 61.2694 94.7774 60.3993 94.7713 59.2512C94.6021 61.9189 94.4692 64.6198 94.9194 67.2543C95.0946 68.2996 95.3665 69.3299 95.4602 70.3873C95.7985 74.206 93.7955 78.0218 94.5115 81.7892C94.6297 82.3544 94.568 82.9423 94.335 83.4706C94.102 83.9989 93.7094 84.441 93.2124 84.7348C92.1852 85.2877 90.9767 85.3572 89.8468 85.6412C87.6323 86.2062 85.6987 87.614 83.4751 88.1397C82.4389 88.3844 81.3603 88.4418 80.3392 88.7047C78.8709 89.0914 77.5385 89.9313 76.043 90.1971C74.9222 90.3965 73.7681 90.2606 72.6352 90.3573C71.6503 90.4388 70.6835 90.6986 69.6956 90.7228C67.2786 90.7832 64.9916 89.4146 63.3843 87.5989C61.7771 85.7832 60.7589 83.2454 59.7498 81.046Z" fill="black"/>
<path d="M168.4 84.7592C172.514 84.7592 176.535 85.979 179.955 88.2644C183.376 90.5499 186.041 93.7982 187.615 97.5987C189.189 101.399 189.601 105.581 188.798 109.616C187.996 113.65 186.015 117.356 183.106 120.264C180.197 123.173 176.491 125.153 172.456 125.955C168.421 126.758 164.24 126.345 160.439 124.771C156.639 123.196 153.391 120.53 151.106 117.109C148.821 113.689 147.602 109.667 147.603 105.554C147.603 100.039 149.795 94.7493 153.695 90.8496C157.596 86.9499 162.885 84.7592 168.4 84.7592ZM168.4 79.6232C163.271 79.6232 158.257 81.1442 153.992 83.994C149.727 86.8438 146.403 90.8943 144.44 95.6332C142.478 100.372 141.964 105.587 142.965 110.618C143.966 115.648 146.436 120.269 150.064 123.896C153.691 127.523 158.312 129.993 163.343 130.993C168.374 131.993 173.588 131.479 178.327 129.516C183.066 127.552 187.116 124.228 189.965 119.963C192.814 115.698 194.335 110.683 194.334 105.554C194.326 98.6786 191.591 92.0872 186.729 87.2259C181.868 82.3646 175.276 79.6304 168.4 79.6232Z" fill="#3F3D56"/>
<path d="M170.639 73.5566H164.561V79.9555H170.639V73.5566Z" fill="#3F3D56"/>
<path d="M186.692 79.2829L181.481 76.1522L178.186 81.6371L183.396 84.7678L186.692 79.2829Z" fill="#3F3D56"/>
<path d="M197.377 91.9471L194.43 86.6306L188.833 89.7328L191.78 95.0493L197.377 91.9471Z" fill="#3F3D56"/>
<path d="M194.35 124.303L197.571 119.148L192.145 115.757L188.924 120.912L194.35 124.303Z" fill="#3F3D56"/>
<path d="M145.022 95.0472L147.969 89.7307L142.373 86.6285L139.426 91.945L145.022 95.0472Z" fill="#3F3D56"/>
<path d="M147.88 120.91L144.659 115.755L139.232 119.146L142.453 124.301L147.88 120.91Z" fill="#3F3D56"/>
<path d="M153.404 84.7674L158.614 81.6367L155.318 76.1518L150.108 79.2825L153.404 84.7674Z" fill="#3F3D56"/>
<path d="M170.639 131.152H164.561V137.551H170.639V131.152Z" fill="#3F3D56"/>
<path d="M183.397 126.342L178.186 129.472L181.482 134.957L186.693 131.826L183.397 126.342Z" fill="#3F3D56"/>
<path d="M150.109 131.827L155.319 134.958L158.615 129.473L153.404 126.342L150.109 131.827Z" fill="#3F3D56"/>
<path d="M143.125 102.995H135.766V108.433H143.125V102.995Z" fill="#3F3D56"/>
<path d="M193.676 108.433H201.035V102.995H193.676V108.433Z" fill="#3F3D56"/>
<path d="M216.715 47.3237C220.829 47.3237 224.85 48.5436 228.27 50.829C231.69 53.1144 234.356 56.3628 235.93 60.1633C237.504 63.9637 237.916 68.1456 237.113 72.1801C236.31 76.2145 234.329 79.9203 231.42 82.8288C228.511 85.7373 224.805 87.7179 220.771 88.5201C216.736 89.3222 212.554 88.9099 208.754 87.3353C204.954 85.7607 201.706 83.0945 199.421 79.674C197.136 76.2534 195.917 72.232 195.917 68.1185C195.918 62.6031 198.11 57.3139 202.01 53.4142C205.91 49.5145 211.2 47.3237 216.715 47.3237V47.3237ZM216.715 42.1877C211.586 42.1877 206.572 43.7088 202.307 46.5586C198.042 49.4084 194.718 53.4588 192.755 58.1978C190.792 62.9368 190.279 68.1513 191.28 73.1821C192.281 78.2128 194.751 82.8338 198.378 86.4605C202.005 90.0873 206.627 92.557 211.658 93.5574C216.688 94.5577 221.903 94.0437 226.642 92.0803C231.38 90.117 235.431 86.7925 238.28 82.5274C241.129 78.2622 242.65 73.2478 242.649 68.1185C242.641 61.2432 239.906 54.6518 235.044 49.7905C230.182 44.9291 223.59 42.1949 216.715 42.1877V42.1877Z" fill="#3F3D56"/>
<path d="M218.954 36.1241H212.875V42.523H218.954V36.1241Z" fill="#3F3D56"/>
<path d="M235.008 41.8456L229.798 38.7148L226.502 44.1997L231.713 47.3305L235.008 41.8456Z" fill="#3F3D56"/>
<path d="M245.693 54.5106L242.746 49.1941L237.15 52.2963L240.097 57.6128L245.693 54.5106Z" fill="#3F3D56"/>
<path d="M242.664 86.8681L245.885 81.7131L240.459 78.3223L237.238 83.4772L242.664 86.8681Z" fill="#3F3D56"/>
<path d="M193.335 57.6155L196.282 52.2991L190.685 49.1968L187.738 54.5133L193.335 57.6155Z" fill="#3F3D56"/>
<path d="M196.193 83.4765L192.972 78.3215L187.546 81.7124L190.767 86.8674L196.193 83.4765Z" fill="#3F3D56"/>
<path d="M201.718 47.3309L206.929 44.2002L203.633 38.7153L198.423 41.846L201.718 47.3309Z" fill="#3F3D56"/>
<path d="M218.954 93.717H212.875V100.116H218.954V93.717Z" fill="#3F3D56"/>
<path d="M231.711 88.9072L226.501 92.038L229.797 97.5229L235.007 94.3921L231.711 88.9072Z" fill="#3F3D56"/>
<path d="M198.422 94.3904L203.632 97.5211L206.928 92.0362L201.717 88.9055L198.422 94.3904Z" fill="#3F3D56"/>
<path d="M191.437 65.5596H184.077V70.9977H191.437V65.5596Z" fill="#3F3D56"/>
<path d="M241.993 70.9977H249.353V65.5596H241.993V70.9977Z" fill="#3F3D56"/>
<path d="M120.074 45.7224C120.318 45.7224 120.563 45.7224 120.808 45.7224C126.259 45.9083 131.419 48.2282 135.176 52.1823C138.933 56.1364 140.986 61.4081 140.894 66.8617C140.801 72.3152 138.57 77.5141 134.68 81.3382C130.791 85.1623 125.555 87.3054 120.101 87.3059C119.856 87.3059 119.611 87.3059 119.364 87.3059C113.912 87.12 108.752 84.7999 104.995 80.8455C101.238 76.8911 99.1847 71.619 99.2779 66.1652C99.371 60.7114 101.603 55.5124 105.493 51.6886C109.383 47.8648 114.619 45.7221 120.074 45.7224V45.7224ZM120.074 40.5864C113.272 40.5856 106.742 43.2569 101.891 48.0248C97.0406 52.7926 94.257 59.2754 94.1405 66.0761C94.024 72.8767 96.5839 79.451 101.269 84.3822C105.953 89.3134 112.388 92.2068 119.185 92.4389C119.488 92.4389 119.79 92.454 120.092 92.454C126.893 92.4541 133.422 89.7822 138.273 85.0141C143.123 80.246 145.906 73.7633 146.022 66.9629C146.138 60.1625 143.578 53.5886 138.893 48.6577C134.209 43.7268 127.775 40.8336 120.977 40.6015C120.675 40.6015 120.373 40.5864 120.071 40.5864H120.074Z" fill="#3F3D56"/>
<path d="M123.431 34.625L117.356 34.4139L117.134 40.809L123.209 41.02L123.431 34.625Z" fill="#3F3D56"/>
<path d="M139.273 40.9007L134.174 37.5909L130.69 42.9581L135.788 46.2678L139.273 40.9007Z" fill="#3F3D56"/>
<path d="M149.514 53.9278L146.753 48.5122L141.052 51.4182L143.813 56.8338L149.514 53.9278Z" fill="#3F3D56"/>
<path d="M145.369 86.1508L148.767 81.1108L143.462 77.5336L140.064 82.5736L145.369 86.1508Z" fill="#3F3D56"/>
<path d="M97.0819 55.2058L100.212 49.9949L94.7263 46.7002L91.5965 51.9111L97.0819 55.2058Z" fill="#3F3D56"/>
<path d="M98.6157 81.6534L95.5764 76.365L90.0094 79.5644L93.0487 84.8528L98.6157 81.6534Z" fill="#3F3D56"/>
<path d="M105.822 45.2186L111.138 42.2708L108.035 36.6747L102.719 39.6226L105.822 45.2186Z" fill="#3F3D56"/>
<path d="M121.433 92.1801L115.358 91.969L115.136 98.364L121.211 98.5751L121.433 92.1801Z" fill="#3F3D56"/>
<path d="M134.353 87.8201L129.038 90.7679L132.141 96.364L137.457 93.4161L134.353 87.8201Z" fill="#3F3D56"/>
<path d="M100.899 92.1392L105.997 95.449L109.481 90.0818L104.383 86.7721L100.899 92.1392Z" fill="#3F3D56"/>
<path d="M94.9133 63.0867L87.5581 62.8312L87.3693 68.266L94.7244 68.5216L94.9133 63.0867Z" fill="#3F3D56"/>
<path d="M145.251 70.2686L152.606 70.5242L152.795 65.0893L145.44 64.8338L145.251 70.2686Z" fill="#3F3D56"/>
<path d="M53.1032 199.129C52.3548 199.22 51.629 199.446 50.9612 199.797C50.0549 200.349 49.496 201.325 49.0972 202.31C48.0972 204.782 47.8887 207.495 47.8464 210.165C47.8101 212.316 47.8826 214.519 48.653 216.525C48.8644 217.16 49.2309 217.732 49.7195 218.189C50.1493 218.528 50.6471 218.769 51.1788 218.896C52.3268 219.199 53.6591 219.199 54.5987 218.473C55.6441 217.655 55.9069 216.214 56.1274 214.905C56.4296 213.141 56.8495 211.28 58.1607 210.05C59.1335 209.144 60.5263 208.691 61.2332 207.567C62.0762 206.232 61.632 204.488 61.0943 203.002C60.626 201.715 59.9402 199.102 58.5927 198.443C57.2453 197.784 54.5051 198.875 53.1032 199.129Z" fill="#FBBEBE"/>
<path d="M102.793 205.458C102.385 206.899 101.663 208.231 100.678 209.359C100.074 210.047 99.3333 210.884 99.6505 211.739C99.7796 212.029 99.9715 212.286 100.212 212.492C104.642 216.827 110.838 218.936 116.986 219.703C117.085 219.73 117.189 219.73 117.288 219.703C117.469 219.621 117.512 219.401 117.536 219.199C117.634 218.558 117.634 217.906 117.536 217.265C117.234 215.754 115.92 214.706 114.633 213.878C113.346 213.05 111.938 212.247 111.219 210.896C110.312 209.217 110.702 207.029 109.636 205.458C108.771 204.18 107.167 203.646 105.645 203.395C105.116 203.313 103.992 202.733 103.53 203.002C103.058 203.274 102.953 204.933 102.793 205.458Z" fill="#FBBEBE"/>
<path d="M52.499 198.972C52.5 198.823 52.446 198.679 52.3473 198.567C52.2486 198.456 52.1122 198.385 51.9643 198.368C51.6685 198.337 51.3697 198.375 51.0911 198.479C50.3983 198.667 49.6909 198.797 48.9763 198.866C48.1274 198.948 47.2603 198.945 46.4355 199.168C45.6107 199.392 44.8041 199.884 44.4687 200.679C44.3056 201.133 44.2317 201.614 44.2512 202.096C44.2341 203.95 44.4555 205.799 44.9098 207.597C44.9178 207.669 44.9421 207.738 44.9808 207.8C45.0195 207.861 45.0717 207.913 45.1334 207.951C45.2391 207.993 45.366 207.951 45.4717 207.999C45.5646 208.054 45.6344 208.141 45.6681 208.244C46.1787 209.392 46.2965 210.661 46.4325 211.917C46.6339 213.768 46.8887 215.613 47.1968 217.452C47.3781 218.525 47.6017 219.652 48.3086 220.473C49.0821 221.38 50.3087 221.77 51.4899 221.93C53.9854 222.262 56.5051 221.76 58.9704 221.247C59.4404 221.2 59.8825 221.002 60.2302 220.682C60.4554 220.4 60.5636 220.042 60.5323 219.682C60.4749 218.449 59.342 217.567 58.3148 216.89L56.9009 215.939C56.8022 215.884 56.7175 215.808 56.6531 215.715C56.5861 215.574 56.5619 215.417 56.5836 215.262L56.6743 213.449C55.7351 213.464 54.8175 213.734 54.0195 214.229C53.2214 214.724 52.5727 215.427 52.1425 216.262C51.9461 216.652 51.7618 217.108 51.354 217.259C50.8494 217.449 50.2875 217.023 50.1183 216.513C50.0006 215.985 50.0162 215.437 50.1636 214.918C50.9914 210.482 50.7981 205.923 51.3026 201.44C51.3338 200.937 51.4884 200.449 51.7528 200.02C51.9975 199.682 52.4537 199.386 52.499 198.972Z" fill="#3F3D56"/>
<path d="M114.204 216.168C114.412 216.513 114.735 216.772 114.929 217.129C115.122 217.485 115.119 218.005 114.772 218.208C114.566 218.298 114.338 218.321 114.119 218.274C109.683 217.723 105.519 215.84 102.176 212.872C101.621 212.403 101.13 211.864 100.714 211.268C100.324 210.664 99.995 209.954 99.3303 209.706C98.9331 211.428 98.7304 213.189 98.7261 214.957C98.7261 216.12 98.8862 217.449 99.8379 218.123C100.219 218.36 100.638 218.53 101.077 218.627L103.152 219.214C103.518 219.352 103.914 219.39 104.3 219.325C104.545 219.259 104.762 219.105 105.013 219.059C105.286 219.03 105.563 219.066 105.82 219.162L107.611 219.685C108.218 219.839 108.811 220.041 109.385 220.289C109.895 220.531 110.37 220.848 110.868 221.117C111.704 221.536 112.572 221.889 113.463 222.171L116.618 223.265C117.48 223.605 118.381 223.837 119.3 223.954C119.935 224.008 120.578 223.954 121.207 224.063C121.684 224.144 122.146 224.316 122.63 224.365C123.426 224.386 124.209 224.155 124.865 223.703C125.121 223.56 125.343 223.363 125.515 223.126C125.968 222.422 125.578 221.495 125.134 220.785C124.315 219.473 123.291 218.244 121.938 217.495C121.388 217.192 120.796 216.969 120.231 216.694C118.624 215.914 117.406 214.612 115.886 213.721C114.451 212.887 113.527 215.059 114.204 216.168Z" fill="#3F3D56"/>
<path d="M69.904 89.1852C68.2378 90.3299 66.3287 91.0725 64.3269 91.3544C63.2798 91.4847 62.2248 91.5413 61.1698 91.5236C56.7705 91.5183 52.379 91.1515 48.0398 90.4269C49.7679 88.5235 51.5141 86.4993 52.1667 84.0038C52.4901 82.6875 52.5567 81.3212 52.3631 79.9796C52.1014 78.2585 51.691 76.5633 51.1365 74.9131C52.9873 75.0124 54.8431 74.9649 56.6864 74.7711C57.7377 74.6654 60.3118 73.7077 61.2181 74.4328C62.0671 75.1065 61.4266 77.4902 61.4115 78.5899C61.4115 78.6292 61.4115 78.6684 61.4115 78.7077C61.459 80.3771 61.8187 82.0228 62.4719 83.5597C63.8013 86.5326 66.6442 88.9737 69.904 89.1852Z" fill="#FBBEBE"/>
<path opacity="0.1" d="M61.4236 78.5748C60.0995 79.4398 58.6056 80.0113 57.0423 80.2511C55.479 80.4908 53.8825 80.3931 52.3601 79.9645C52.0984 78.2434 51.688 76.5482 51.1335 74.898C52.9843 74.9972 54.84 74.9498 56.6834 74.756C57.7347 74.6503 60.3088 73.6925 61.2151 74.4176C62.0792 75.0913 61.4387 77.4751 61.4236 78.5748Z" fill="black"/>
<path d="M55.3691 79.8618C61.476 79.8618 66.4266 74.9112 66.4266 68.8043C66.4266 62.6974 61.476 57.7468 55.3691 57.7468C49.2622 57.7468 44.3116 62.6974 44.3116 68.8043C44.3116 74.9112 49.2622 79.8618 55.3691 79.8618Z" fill="#FBBEBE"/>
<path d="M102.285 124.757C102.291 125.649 102.064 126.528 101.627 127.306C101.19 128.084 100.558 128.735 99.7925 129.195C98.9377 129.643 98.0216 129.964 97.0735 130.146C92.016 131.355 86.8347 132.349 81.6413 132.053C80.5174 131.989 79.3754 131.856 78.3663 131.364C77.3573 130.871 76.4962 129.95 76.3452 128.838C76.3384 128.563 76.2842 128.291 76.185 128.035C75.9849 127.751 75.7223 127.518 75.4177 127.352C74.9505 126.993 74.5936 126.51 74.3874 125.958C74.1812 125.407 74.1341 124.808 74.2515 124.231C73.6201 124.512 72.9614 123.877 72.6654 123.252C72.3693 122.627 72.1367 121.871 71.5022 121.608C71.0702 121.424 70.5717 121.533 70.1155 121.415C69.3874 121.228 68.9433 120.509 68.4297 119.971C67.3813 118.85 65.8949 118.27 64.5233 117.581C60.4538 115.53 57.1365 112.279 53.8887 109.083C52.2543 107.472 50.6077 105.85 49.3117 103.947C48.9461 103.412 48.6168 102.862 48.3056 102.297C47.323 100.413 46.4711 98.464 45.7557 96.4632C45.3448 95.3937 44.9279 94.2638 45.0971 93.1399C45.1122 93.0372 45.1334 92.9345 45.1575 92.8378C45.3681 92.1076 45.7078 91.421 46.1606 90.8106C47.2844 89.158 48.7588 87.593 50.6923 87.0855C52.6259 86.5779 54.5564 87.1912 56.5202 87.6081C57.1723 87.7533 57.8334 87.8542 58.4991 87.9103C60.5806 88.0583 62.6411 87.4994 64.6532 86.9435L66.8466 86.3392C67.9463 86.0371 68.4961 84.7078 69.6079 84.4752C70.1046 84.4037 70.6105 84.4294 71.0974 84.5507C73.3542 84.9797 75.6291 85.5326 77.6141 86.6806C78.056 86.9372 78.479 87.2249 78.8799 87.5417C80.2938 88.6595 81.4117 90.149 81.8226 91.8892C82.2757 93.8016 81.8498 95.8439 82.309 97.7563C82.6836 99.3364 83.6322 100.714 84.5628 102.046L89.9616 109.756C91.1666 111.571 92.494 113.301 93.9345 114.935C96.8288 118.086 102.212 120.469 102.285 124.757Z" fill="#536DFE"/>
<path d="M87.8679 50.8494C88.0915 49.795 88.2577 48.6892 88.8408 47.7799C89.2394 47.2081 89.721 46.699 90.2698 46.2693C91.1973 45.4868 92.1822 44.7345 93.3332 44.3538C94.4843 43.9732 95.8378 44.0245 96.8046 44.7557C97.7714 45.4868 98.1792 46.7466 98.3303 47.949C98.5357 49.6016 98.3303 51.3418 97.5115 52.7829C96.575 54.4174 94.9496 55.502 93.584 56.8132C92.5956 57.7606 91.7354 58.8331 91.0251 60.0035C90.7023 60.614 90.3111 61.1856 89.8589 61.7075C89.6296 61.9671 89.3426 62.1693 89.0209 62.2979C88.6993 62.4264 88.352 62.4777 88.0069 62.4477C87.4268 62.354 86.9495 61.9492 86.4963 61.5625C85.9374 61.073 84.4298 60.1999 84.3815 59.4235C84.3452 58.7951 85.5205 57.3691 85.8075 56.7799C86.7001 54.8807 87.3907 52.8929 87.8679 50.8494V50.8494Z" fill="#FBBEBE"/>
<path d="M126.729 178.935C125.34 181.5 123.817 183.999 122.578 186.639C121.856 188.183 121.231 189.772 120.427 191.274C119.551 192.911 118.472 194.434 117.557 196.053C115.252 200.135 113.968 204.739 112.781 209.274C109.459 208.777 106.264 207.649 103.367 205.951C103.17 205.836 102.983 205.715 102.802 205.585C102.027 205.03 101.379 204.316 100.901 203.491C101.998 199.343 103.125 195.126 105.358 191.461C106.086 190.253 106.919 189.15 107.669 187.972C109.841 184.558 110.288 180.25 112.768 177.053C113.006 176.731 113.133 176.341 113.133 175.941C113.133 175.541 113.006 175.152 112.768 174.83C112.481 174.458 112.025 174.104 112.11 173.645C112.173 173.31 112.524 173.008 112.388 172.694C112.324 172.542 112.17 172.461 112.049 172.352C111.626 171.962 111.681 171.298 111.645 170.727C111.551 169.28 110.684 168.008 109.832 166.826C109.662 166.546 109.437 166.304 109.17 166.113C108.947 165.977 108.681 165.917 108.457 165.778C107.666 165.283 107.723 164.129 107.342 163.274C106.847 162.147 105.599 161.573 104.78 160.657C103.738 159.494 103.472 157.872 102.364 156.854C102.252 156.744 102.132 156.643 102.004 156.551C102.554 158.258 102.608 160.08 102.648 161.878C102.753 168.038 101.212 174.416 101.935 180.537C102.503 185.392 99.5176 190.238 95.2729 192.664C93.6414 193.594 91.8589 194.216 90.0885 194.848C87.4329 195.787 84.7863 196.757 82.1821 197.845C80.3412 198.606 78.5285 199.427 76.744 200.307C74.538 201.378 72.3909 202.566 70.3119 203.866C67.756 205.491 65.2 207.144 63.3843 209.57C61.629 209.522 60.0218 208.467 58.91 207.108C57.7982 205.748 57.0972 204.087 56.4598 202.467C55.8948 201.062 55.3389 199.612 55.2966 198.099C55.3042 197.936 55.3576 197.779 55.4506 197.645C55.5436 197.512 55.6724 197.407 55.8223 197.343L67.9584 190.911L70.2273 189.703C75.1971 187.065 80.3452 184.627 85.3151 181.993C85.6504 182.092 85.9193 181.712 86.019 181.389C86.1187 181.065 86.1882 180.648 86.5024 180.503C86.6595 180.428 86.8649 180.431 86.9827 180.298C87.0595 180.179 87.0897 180.036 87.0673 179.896C86.9072 177.479 85.1731 175.283 85.5205 172.899C85.6685 171.884 86.1912 170.884 85.9646 169.878C85.8045 169.186 85.309 168.627 85.0401 167.971C84.4359 166.506 85.0401 164.742 84.3875 163.307C83.9539 162.363 83.6588 161.362 83.5114 160.334C83.1989 158.287 82.5732 156.3 81.6564 154.443C81.2152 153.504 80.6402 152.634 79.9494 151.86C79.5839 151.467 79.173 151.116 78.8256 150.708C77.7712 149.458 77.3814 147.79 77.0823 146.177C76.5385 143.255 76.176 140.225 76.8407 137.331C77.0703 136.343 77.4207 135.364 77.4056 134.352C77.3905 133.013 76.8014 131.451 77.7319 130.485C78.1173 130.139 78.5856 129.898 79.0914 129.787C81.2304 129.149 83.457 128.859 85.6715 128.578L95.8076 127.252C96.9677 127.098 98.1551 126.95 99.1792 126.373C100.554 125.615 101.466 124.21 102.025 122.747C103.805 124.047 104.469 126.467 105.889 128.143C106.581 128.962 107.436 129.624 108.194 130.376C109.122 131.353 109.971 132.4 110.735 133.509C112.85 136.412 114.965 139.337 116.475 142.594C117.264 144.285 117.874 146.05 118.503 147.805C120.977 154.715 125.01 161.274 126.684 168.416C127.095 170.162 128.161 171.739 128.328 173.524C128.515 175.419 127.639 177.249 126.729 178.935Z" fill="#3F3D56"/>
<path opacity="0.1" d="M73.6472 121.551C73.3989 122.01 73.2701 122.525 73.2726 123.047C73.4992 121.929 75.037 121.309 75.1367 120.204C75.182 119.693 75.0883 119.717 74.7741 119.986C74.2968 120.4 74.0883 121.113 73.6472 121.551Z" fill="black"/>
<path opacity="0.1" d="M78.3331 124.947C78.0084 125.221 77.7658 125.58 77.6322 125.983C77.3707 126.551 77.3204 127.194 77.4902 127.796C77.7168 127.69 77.7923 127.412 77.8618 127.17C77.9731 126.794 78.1347 126.434 78.3422 126.101C78.5234 125.799 79.3603 125.125 79.3573 124.808C79.3482 124.321 78.5567 124.775 78.3331 124.947Z" fill="black"/>
<path opacity="0.1" d="M78.8739 87.5205C78.1633 88.132 77.3799 88.6536 76.5416 89.0734C74.3512 90.1822 71.9252 90.7683 69.7197 91.8438C68.6317 92.4014 67.5748 93.0176 66.5535 93.6897L59.9976 97.8439C59.4709 98.1456 58.9855 98.5142 58.5535 98.9406C57.7649 99.7804 57.768 101.258 57.0429 102.158C56.3178 103.058 55.067 103.566 53.8616 103.626C52.6541 103.634 51.4546 103.429 50.3177 103.022C49.6292 102.816 48.9533 102.57 48.2935 102.285C47.6036 101.992 46.9505 101.619 46.3479 101.173C45.1787 100.291 44.2331 99.007 44.0578 97.5478C43.9791 96.5464 44.1119 95.5397 44.4476 94.5931C44.6291 93.9772 44.8625 93.3779 45.1455 92.8015C45.3066 92.4737 45.4925 92.1586 45.7014 91.8589C47.212 89.726 49.8615 88.726 52.4265 88.2335C53.774 87.9707 55.1456 87.8105 56.5081 87.5809C57.1602 87.726 57.8213 87.827 58.487 87.883C60.5686 88.0311 62.629 87.4722 64.6411 86.9163L66.8345 86.312C67.9342 86.0099 68.4841 84.6806 69.5959 84.448C70.0926 84.3765 70.5984 84.4021 71.0853 84.5235C73.3421 84.9525 75.6171 85.5054 77.602 86.6534C78.0462 86.9116 78.4712 87.2014 78.8739 87.5205Z" fill="black"/>
<path d="M84.2214 58.1727C83.9404 60.8465 81.6836 62.8102 80.2938 65.1214C79.6262 66.2423 79.1579 67.4719 78.5567 68.632C77.8677 69.8969 77.1008 71.1178 76.2606 72.2877L73.8043 75.8527C72.3602 77.9494 70.901 80.0642 69.0551 81.8195C65.8375 82.3663 63.1396 84.7561 60.0882 85.9162C57.6471 86.8437 54.9854 86.9706 52.4235 87.4691C49.8615 87.9676 47.2059 88.9797 45.7014 91.0945C45.1411 91.9286 44.7169 92.8464 44.4445 93.8136C44.1069 94.7587 43.975 95.765 44.0578 96.7652C44.2421 98.2214 45.1757 99.5024 46.3449 100.391C47.5141 101.279 48.9129 101.805 50.3147 102.24C51.452 102.645 52.6511 102.85 53.8585 102.844C55.067 102.783 56.2936 102.318 57.0429 101.376C57.7921 100.433 57.7559 98.9979 58.5534 98.158C58.9865 97.7316 59.473 97.363 60.0006 97.0613L66.5565 92.9072C67.577 92.2393 68.633 91.6271 69.7197 91.0733C71.9252 89.9948 74.3512 89.4117 76.5415 88.3029C78.7319 87.1942 80.7712 85.3633 81.2093 82.9464C82.5446 75.5203 87.6836 69.2604 92.0855 63.1275C91.9405 63.0972 91.9858 62.7679 91.9314 62.629C91.3695 61.1728 90.1187 60.0761 88.7108 59.3842C87.303 58.6924 85.732 58.499 84.2214 58.1727Z" fill="#536DFE"/>
<path d="M61.0429 58.2272C61.1246 57.4217 60.9659 56.6101 60.5867 55.8948C59.8586 54.6864 58.3329 54.2604 56.9613 53.9764C55.634 53.7045 54.3006 53.4708 52.9612 53.2755C51.8615 53.1154 50.7346 52.9734 49.653 53.2211C48.1425 53.5504 46.9128 54.5504 45.514 55.1728C43.8615 55.9099 42.0306 56.1033 40.2662 56.5112C38.5019 56.919 36.6952 57.6109 35.5895 59.0429C34.7496 60.1305 34.4142 61.5203 34.1635 62.8738C32.0698 74.1699 34.3236 85.7562 34.7526 97.2366C34.9188 101.705 34.7163 106.481 32.1635 110.152L39.5986 109.956C41.5019 109.907 43.5473 109.808 45.0367 108.633C46.3539 107.599 46.9763 105.935 47.5412 104.358C47.9854 103.116 48.4325 101.85 48.4899 100.533C48.6077 97.8348 47.076 95.1853 47.5835 92.5296C47.9551 90.5477 49.3963 88.9465 50.9401 87.6444C52.4839 86.3423 54.1999 85.2275 55.4477 83.6323C57.6773 80.8135 58.1033 76.9615 57.8253 73.3814C57.6592 71.2515 57.2785 69.1216 57.4628 66.9916C57.6018 65.3995 58.1063 63.7559 59.1486 62.5142C60.3208 61.1064 60.9402 60.2242 61.0429 58.2272Z" fill="#3F3D56"/>
<path opacity="0.1" d="M60.5867 55.8948C59.8707 54.7045 58.3843 54.2754 57.0217 53.9915C57.746 54.2492 58.3658 54.7374 58.7861 55.3812C59.1666 56.096 59.3255 56.908 59.2423 57.7135C59.1396 59.7075 58.5202 60.5897 57.3359 62.0006C56.2936 63.2423 55.7891 64.8828 55.6501 66.478C55.4658 68.6079 55.8465 70.7378 56.0126 72.8678C56.2906 76.4479 55.8646 80.2999 53.638 83.1186C52.3872 84.7017 50.6712 85.8377 49.1304 87.1308C47.5896 88.4238 46.1424 90.0341 45.7708 92.016C45.2723 94.6716 46.8041 97.3212 46.6772 100.019C46.6198 101.336 46.1696 102.602 45.7255 103.844C45.1636 105.421 44.5382 107.083 43.221 108.116C41.7104 109.291 39.6771 109.394 37.7828 109.442L32.5169 109.581C32.3991 109.774 32.2783 109.968 32.1483 110.152L39.5835 109.956C41.4868 109.907 43.5321 109.808 45.0216 108.632C46.3388 107.599 46.9612 105.935 47.5261 104.358C47.9703 103.116 48.4174 101.85 48.4748 100.533C48.5926 97.8348 47.0609 95.1852 47.5684 92.5296C47.94 90.5477 49.3812 88.9465 50.925 87.6443C52.4688 86.3422 54.1848 85.2274 55.4326 83.6322C57.6622 80.8135 58.0882 76.9615 57.8102 73.3814C57.6441 71.2514 57.2634 69.1215 57.4477 66.9916C57.5867 65.3994 58.0912 63.7559 59.1335 62.5142C60.3178 61.1063 60.9462 60.2241 61.0399 58.2271C61.1225 57.422 60.9648 56.6104 60.5867 55.8948V55.8948Z" fill="black"/>
<path opacity="0.1" d="M116.448 172.322L102.802 205.6C102.027 205.045 101.379 204.331 100.901 203.507C101.998 199.359 103.125 195.141 105.358 191.476C106.086 190.268 106.919 189.165 107.669 187.987C109.841 184.573 110.288 180.265 112.768 177.068C113.006 176.746 113.133 176.356 113.133 175.956C113.133 175.556 113.006 175.167 112.768 174.845C112.481 174.473 112.025 174.12 112.11 173.66C112.173 173.325 112.524 173.023 112.388 172.709C112.324 172.558 112.17 172.476 112.049 172.367C111.626 171.978 111.681 171.313 111.645 170.742C111.551 169.295 110.684 168.023 109.832 166.842C109.662 166.562 109.437 166.319 109.17 166.129C108.947 165.993 108.681 165.932 108.457 165.793C107.666 165.298 107.723 164.144 107.342 163.289C106.847 162.162 105.599 161.588 104.78 160.672C103.738 159.509 103.472 157.887 102.364 156.869L102.27 156.633L103.333 150.213L116.448 172.322Z" fill="black"/>
</g>
<defs>
<linearGradient id="paint0_linear" x1="80.3241" y1="225.047" x2="80.3241" y2="43.5653" gradientUnits="userSpaceOnUse">
<stop stop-color="#808080" stop-opacity="0.25"/>
<stop offset="0.54" stop-color="#808080" stop-opacity="0.12"/>
<stop offset="1" stop-color="#808080" stop-opacity="0.1"/>
</linearGradient>
<clipPath id="clip0">
<rect width="305" height="226.706" fill="white"/>
</clipPath>
</defs>
</svg>
